<svg xmlns="http://www.w3.org/2000/svg" viewBox="0 0 773.15 270.36"><defs><style>.cls-1{font-size:33px;}.cls-1,.cls-4{font-family:News701BT-ItalicA, News701 BT;font-style:italic;}.cls-2{letter-spacing:-0.04em;}.cls-3{fill:none;}.cls-4{font-size:60px;}.cls-5{font-size:88px;fill:#5bb224;font-family:ComicSansMS, Comic Sans MS;opacity:0.35;}</style></defs><title>Logo_auto_buff</title><g id="Layer_1" data-name="Layer 1"><path d="M75.81,312.2a448.11,448.11,0,0,1,87.36-47.27c15.32-6.28,30.87-12.21,46.83-17.15,8-2.49,16.07-4.57,24.22-6.45s16.4-3.4,24.68-4.64,16.65-2,25-2.65,16.55-1.16,24.9-1.38,16.77-.23,25.18.28a190.76,190.76,0,0,1,25.14,3.31,146.8,146.8,0,0,1,24.42,7l3,1.13L388,245l1.45.65,5.8,2.59c1.91.9,3.77,1.91,5.65,2.86l2.82,1.45,2.75,1.56c14.67,8.29,27.91,19.29,37.7,32.87-13.34-10-26.59-19.4-40.94-26.94l-2.71-1.38-2.75-1.27c-1.84-.83-3.65-1.72-5.51-2.51l-5.62-2.23-1.41-.55-1.43-.48-2.87-1a156.64,156.64,0,0,0-23.39-5.87,205.71,205.71,0,0,0-24.05-2.53c-8.09-.36-16.22-.31-24.38-.06s-16.36.68-24.61,1.18-16.26,1.17-24.34,2.3a336.28,336.28,0,0,0-47.95,9.67c-15.79,4.28-31.3,9.75-46.85,15.26A555.32,555.32,0,0,0,75.81,312.2Z" transform="translate(-34.11 -139.75)"/><path d="M542.52,361.53a38.58,38.58,0,0,0,7-14.33,30.27,30.27,0,0,0-.23-15.22,35.93,35.93,0,0,0-7.11-13.29c-.81-1-1.7-2-2.54-2.94s-1.75-1.81-2.64-2.7a45.94,45.94,0,0,0-5.94-4.63,18.59,18.59,0,0,0-1.59-1l-1.63-1c-1.14-.57-2.22-1.21-3.4-1.72a74.16,74.16,0,0,0-7.12-2.9,132.31,132.31,0,0,0-15.18-4.09c-5.2-1.09-10.47-2.06-15.74-2.86s-10.57-1.47-15.88-1.95c-21.24-2-42.73-1.54-64.22.22s-42.92,4.9-64.41,8.77a308.13,308.13,0,0,1,63.53-16.31c21.7-3.21,43.92-4.43,66-2.3,5.51.56,11,1.24,16.48,2.17s10.88,2,16.28,3.36a119.6,119.6,0,0,1,16.12,5.05,65.11,65.11,0,0,1,15.14,8.36,49.75,49.75,0,0,1,6.51,5.88,55.3,55.3,0,0,1,5.3,6.84,40.6,40.6,0,0,1,6.64,16A32.87,32.87,0,0,1,552,348a36.77,36.77,0,0,1-4,7.39A37.52,37.52,0,0,1,542.52,361.53Z" transform="translate(-34.11 -139.75)"/><text class="cls-1" transform="translate(103.48 208.29)">EZMEMBRARI <tspan class="cls-2" x="262.84" y="0">A</tspan><tspan x="287.8" y="0">UT</tspan></text><rect x="102.96" y="328.19" width="33.9" height="1.98" transform="translate(188.27 -145.59) rotate(37.02)"/><rect x="98.15" y="326.83" width="41.59" height="2.09" transform="translate(-263.92 183.01) rotate(-69.22)"/><rect x="98.07" y="327.04" width="41.59" height="2.09" transform="translate(-192.67 400.01) rotate(-107.43)"/><rect x="102.61" y="327.04" width="36.88" height="1.85" transform="translate(297.1 467.58) rotate(163.31)"/><rect x="481.45" y="332.29" width="36.46" height="2.32" transform="translate(589.29 -394.15) rotate(68.17)"/><rect x="481.41" y="332.33" width="37.07" height="2.32" transform="translate(-133.39 239.51) rotate(-38.07)"/><rect x="480.35" y="330.42" width="40.12" height="2.53" transform="translate(25.4 599.41) rotate(-76.28)"/><rect x="481.74" y="332.94" width="35.87" height="2.06" transform="translate(866.06 642.34) rotate(-165.55)"/><path d="M108.1,345.86" transform="translate(-34.11 -139.75)"/><line class="cls-3" x1="80" y1="171.28" x2="87.15" y2="198.23"/><text class="cls-4" transform="translate(59.14 210.04)">D</text><text class="cls-4" transform="translate(440.41 214.43)">O</text><path d="M657,345.94c.09-1.58.11-2.38.15-4a12,12,0,0,1-3.27,5.39,20.58,20.58,0,0,1-6.83,6c-3.46,2.36-6.1,3.24-7.88,3s-3.33-1.88-4.91-4.73c-2.7-3.47-3.23-7.68-3-12.25.39-6.89.34-16,1.14-26.22.58-7.43.06-14.15.79-15.87.88-2.08,4.5-1.37,6.65,1.15,1.47,1.73,3.31,8,1.91,17.57-.84,8.72-4,19.88-.43,28.14,1,.89,2.44,1,4.34.06s4.36-3.52,7-8.31a45.18,45.18,0,0,0,5.19-17.52c.67-6.84.44-13.58-1.22-18-1.16-3.08-1.82-6.07-.52-8.68a5.79,5.79,0,0,1,.63-2.56c.4-.74.85-.89,1.35-.46l2.11-1.16c.28-.12.73.19,1.36.93a5.45,5.45,0,0,0,1.51,1.39c5.81,7.78,5.48,19,4.27,28.23-1.39,10.52-2.88,18.16-3.07,23.62A29.47,29.47,0,0,0,667,356.08c1.12,1.72,1.42,5,.17,8.83a4.94,4.94,0,0,1-3.86,3.54c-1.72.28-3-.52-4-2.29-1.3-3.84-1.92-9-2.4-15.38A36.62,36.62,0,0,1,657,345.94Z" transform="translate(-34.11 -139.75)"/><path d="M684.68,364.88a123.41,123.41,0,0,1-8.93,25.05c-2.34,5-4.31,8-5.39,8.71s-1.41-2-1.37-7.76a15.93,15.93,0,0,1,.56-4.57,64.05,64.05,0,0,1,3.15-8.19,54.91,54.91,0,0,0,3.56-10.18c1.32-5.46,3.48-12.92,5.51-22.78a108.44,108.44,0,0,0,2.45-22.25c.88-11,.13-18.32-.62-21.56s-.73-5.7.2-7.49a79.65,79.65,0,0,1-.54-9.18c-2.49-14.24-5.71-28.65-10.59-41.57-3.35-8.89-6.75-15.32-7.75-17.73-1.21-2.93-3.51-8.27-6.23-15.6s-6-13.85-7.21-18.4c-1.36-5.13-.86-9.91.53-11.87s2.73-2.95,3.62-3.2c1.18-.33,4-.39,7.68.78a39.07,39.07,0,0,1,7.16,2.93,26.12,26.12,0,0,1,5.41,4.55c3.44,3.65,7.34,9.53,11.2,16.75s5.15,11.26,4.64,12c-.4,1.55-1.29,1.89-2.63,1.06a25.26,25.26,0,0,1-5.24-5.28c-2.08-1.85-3.14-2.75-5.28-4.52a40.45,40.45,0,0,1-5.12-7.19,10.05,10.05,0,0,0-3.49-4,1.16,1.16,0,0,0-1.89,1.07c0,1.32,1.63,6.2,3.51,13.86s2.82,11.88,3.62,12.88a45.21,45.21,0,0,1,3.43,9.47c1.42,5.31,2.67,8.87,3.7,10.52s1.27,2.64.76,3a76,76,0,0,1,2.93,9.53c1.2,4.55,2,8.29,1.91,10.74l.13-.06c2.34,9.75,3,15,3.36,15.93s1.81.54,4.35-1.07a26.31,26.31,0,0,0,6.25-5.4c1.62-2,4.11-3.24,5.7-2.66,1.29.47,3.12,3,4.75,6.08a17.34,17.34,0,0,1,2.31,6.74c.06,2.28-4.08,7.19-12.81,13.37-5.76,4.09-8.65,6.38-8.51,7.1-1,.22-1.18,1.5-.8,3.86A26.77,26.77,0,0,1,693,315c-.19,2.07-.24,7.81-1.31,17s-2.29,14.73-2.51,16.88c-.91,1.74-1.19,5.64-2.38,9.51A67.21,67.21,0,0,0,684.68,364.88Z" transform="translate(-34.11 -139.75)"/><path d="M719,377.65c-2.84,10.57-4.71,15.61-9.44,24.83-2.44,4.66-4.41,7.27-5.27,7.61s-.47-2.91.37-9.37a28.44,28.44,0,0,1,1-4.93,77.7,77.7,0,0,1,3.08-7.89A53.44,53.44,0,0,0,712.1,378c1.31-5.54,3.3-12.91,5.22-23a130.94,130.94,0,0,0,2.4-23.51c.92-11.81.32-20.09-.35-23.71s-.62-6.39.3-8.48c-.26-1.58-.29-5-.38-10.61-2.12-17.06-5.09-34.34-9.71-50.2-3.19-11-6.55-19-7.66-22.36-1.22-3.69-3.61-10.77-6.75-21s-7-19.49-8.78-26.41c-2.23-8.54-2.49-16.23-1.59-20.14s2-6.24,2.72-6.94c1.09-1.1,3.72-2.25,7.32-1.67a22,22,0,0,1,7.26,2.35,25,25,0,0,1,5.84,5.75c3.9,5,8.31,13.4,12.71,23.8s5.9,16.31,5.47,17.55c-.27,2.51-1.09,3.25-2.42,2.34s-3.08-3.18-5.37-6.71c-2.12-2.26-3.19-3.35-5.38-5.45a56.35,56.35,0,0,1-5.56-9.75c-1.27-2.84-2.7-4.64-3.76-5.21S701.86,165,702,167c.16,2.24,2.35,9.53,4.8,20.8s3.52,17.21,4.32,18.44a74.47,74.47,0,0,1,3.66,12.84c1.52,7.25,2.77,11.9,3.77,13.91s1.25,3.36.77,4a116.33,116.33,0,0,1,2.87,12.3c1.15,5.82,1.91,10.59,1.79,13.78l.13-.11c2.17,12.23,2.71,18.66,3,19.72s1.72.54,4.17-1.67a31,31,0,0,0,6-7.37c1.57-2.71,4.14-4.46,5.47-3.88s3,3.89,4.46,8a28.25,28.25,0,0,1,2.06,8.95c0,3.08-4.09,9.52-12.49,16.8-5.57,4.83-8.33,7.3-8.22,8.16-.89.21-1.14,1.69-.82,4.44a38.57,38.57,0,0,1,.13,7.7c-.22,2.36-.39,8.95-1.61,19.09s-2.5,16-2.77,18.32c-.87,1.68-1.17,5.74-2.48,9.92C720.58,372.75,719.6,375.07,719,377.65Z" transform="translate(-34.11 -139.75)"/></g><g id="Layer_2" data-name="Layer 2"><path d="M526.35,251.41c0-.08.17-.56.42-1.37a25.93,25.93,0,0,1,2.45-5.73,18.84,18.84,0,0,1,14.54-9.22c6.25-.64,13.49,1.44,20.64,6.53,3.25,2.32,7.14,7.19,10.82,14.49a65.11,65.11,0,0,1,6.63,20.7c.84,6.41.71,10.5.18,12.38.16.05,2.16-.4,6.08-1.18,10.34-1.92,20.06,3.82,26.37,11.65,4.33,5.39,8,14.13,9.42,25.7,0,2.21-.06,3.32-.15,5.5a45.05,45.05,0,0,1-.12,7.41,68.53,68.53,0,0,1-1.4,10.36c-5.12,9.07-10.64,19.2-22.17,20.95-4.81.73-8.59.38-11.24-1s-4.77-2.52-6.34-3.43a16.23,16.23,0,0,1-3.76-2.83c-1.88-2-1.86-4,0-6.44.72-.91,3.11-.09,7,2.54,4.65,3.14,10.74,3.18,17-1.12s11.07-12.59,12.5-24.15a39.66,39.66,0,0,0-3.54-19.87c-3-6.95-6.16-10.86-8.63-11.9-9.32-6.5-20.18-3.11-25.91,6.17-1.33,1.42-3.14,3.64-5.51,6.59a4.65,4.65,0,0,0-.63,4,121.08,121.08,0,0,1,4.6,22c1.58,13.09.18,20-1,21.07-.82.65-2.5-.09-4.75-2a8.71,8.71,0,0,1-3.1-8.34,27.32,27.32,0,0,0-.36-6.91c-1.43-10.53-3.48-21.72-6.87-31.89-4.24-12.73-11.4-25-19.62-36.1-5.28-7.1-9-10.09-9.84-9.45a5.28,5.28,0,0,0-1.71-.46,3.85,3.85,0,0,1-1.64-.56c-.55-.38-1.06-2.05-1.29-5.11s.15-5.15.74-6.1C527,252.93,527,251.71,526.35,251.41Zm14.55,11a10.08,10.08,0,0,1,4,5.29c.89,1.22,1.32,1.84,2.17,3.08a48.4,48.4,0,0,1,4.88,6.73c5.28,8.94,9.9,18.06,14.76,27.21,4.26-5.33,6.72-9.13,7.55-11.23a28.26,28.26,0,0,0,.44-8.46,67,67,0,0,0-3.57-13.76,75.32,75.32,0,0,0-7.76-15.86c-3-4.6-5.72-8.06-8-9.81a11,11,0,0,0-6.75-2.42c-2.31,0-4.72,1.46-6.86,4.64a19,19,0,0,0-3.43,8.58C538.06,259.08,538.85,261.1,540.9,262.38Z" transform="translate(-34.11 -139.75)"/></g><g id="Layer_3" data-name="Layer 3"><text class="cls-5" transform="translate(4.24 215.51) rotate(-3.14)">Made by vamysoft</text></g></svg>